<?xml version="1.0" encoding="utf-8"?>
<svg width="400" height="300" viewBox="0 0 400 300" fill="none" xmlns="http://www.w3.org/2000/svg">
  <g>
    <path d="M188.962 171.608C195.149 179.426 201.196 186.143 207.102 191.757Q244.332 227.148 289.867 218.924Q301.129 216.891 308.846 206.364C313.624 199.848 316.013 192.839 316.013 185.336L316.013 35.1408C316.013 27.6385 313.624 20.6292 308.847 14.113C303.702 7.09518 297.375 2.90808 289.868 1.55172Q244.332 -6.67519 207.101 28.7154C197.583 37.7632 187.701 49.6727 177.453 64.4437C172.731 71.2514 166.371 81.1058 158.374 94.0069L158.335 93.943Q156.595 96.7731 154.756 99.7865C152.531 103.433 150.404 106.897 148.375 110.176L148.411 110.235Q133.586 134.391 125.515 146.018Q111.052 166.852 97.9347 179.294Q66.6705 208.949 29.1747 202.174Q24.5833 201.344 20.8755 196.295C18.2918 192.777 17 189.124 17 185.336L17 35.1408Q17 29.4585 20.8755 24.1813Q24.5834 19.1323 29.1749 18.3024Q66.6713 11.5247 97.9357 41.179Q107.605 50.3503 118.006 64.0816C121.499 58.4286 124.703 53.3157 127.619 48.7431Q118.426 37.1834 109.635 28.8448Q72.122 -6.73605 26.1511 1.57348Q14.892 3.60862 7.17353 14.1187Q0 23.8868 0 35.1408L0 185.336C0 192.839 2.39125 199.846 7.17376 206.358Q14.8925 216.868 26.1519 218.903Q72.1218 227.209 109.634 191.628Q124.02 177.983 139.48 155.712C141.443 152.885 143.687 149.534 146.21 145.662C150.465 138.983 155.42 131.009 161.075 121.742C168.885 108.944 175.477 98.4193 180.853 90.1687Q187.11 80.349 191.421 74.1337Q205.799 53.4084 218.814 41.0368Q249.795 11.587 286.845 18.2809Q291.43 19.1092 295.137 24.1647Q299.013 29.4516 299.013 35.1408L299.013 185.336C299.013 189.129 297.721 192.788 295.137 196.312C292.666 199.682 289.902 201.643 286.845 202.195Q249.796 208.887 218.815 179.436Q209.075 170.177 198.571 156.239C195.089 161.883 191.886 167.006 188.962 171.608Z" fill="#7AAAC6" fill-rule="evenodd" transform="translate(41.5 39.766)" />
    <path d="M0 0L0 28.0488L0.039917 28.0488Q0.690822 28.0488 1.33863 28.1122Q1.98644 28.1756 2.62498 28.3019Q3.26353 28.4281 3.88673 28.616Q4.50993 28.8039 5.11187 29.0516Q5.7138 29.2993 6.28873 29.6044Q6.86366 29.9096 7.40612 30.2693Q7.94858 30.6291 8.45341 31.04Q8.95823 31.4509 9.42062 31.909L39.2868 61.5001L9.42064 91.0911Q8.95825 91.5492 8.45343 91.9601Q7.94861 92.371 7.40615 92.7308Q6.86369 93.0905 6.28875 93.3957Q5.71382 93.7009 5.11189 93.9485Q4.50996 94.1962 3.88675 94.3841Q3.26355 94.572 2.625 94.6982Q1.98646 94.8245 1.33865 94.8879Q0.690845 94.9513 0.0399399 94.9513L0 94.9513L0 123L62 61.5713L61.9281 61.5L62 61.4288L0 0Z" fill="#517182" fill-rule="evenodd" transform="translate(80 89)" />
    <path d="M0 6L35.9908 6.00102L52.8988 6.00179Q53.3852 6.00181 53.8693 5.95414Q54.3534 5.90647 54.8305 5.81157Q55.3075 5.71667 55.773 5.57545Q56.2385 5.43423 56.6879 5.24805Q57.1372 5.06188 57.5662 4.83253Q57.9952 4.60319 58.3996 4.3329Q58.804 4.06261 59.18 3.75396Q59.5559 3.44532 59.8998 3.1013L62.9999 0" fill="none" stroke-width="12" stroke="#FF0000" stroke-linecap="square" transform="translate(250 148)" />
    <path d="M45.3709 19.2566C45.3709 19.2566 42.8264 19.2566 42.8264 19.2566C42.3534 17.4127 41.6152 15.6857 40.6526 14.106C40.6526 14.106 42.4818 12.2725 42.4818 12.2725C42.9757 11.7786 43.2472 11.1198 43.2472 10.4203C43.2472 9.72174 42.9736 9.06186 42.4818 8.56904C42.4818 8.56904 39.433 5.52336 39.433 5.52336C38.4443 4.53354 36.7162 4.53459 35.7317 5.52232C35.7317 5.52232 33.8251 7.41738 33.8251 7.41738C32.2631 6.50692 30.5883 5.80527 28.7434 5.35421C28.7434 5.35421 28.7434 2.63117 28.7434 2.63117C28.7434 1.18716 27.5897 0 26.1456 0C26.1456 0 21.8355 0 21.8355 0C20.3915 0 19.2555 1.18716 19.2555 2.63117C19.2555 2.63117 19.2555 5.35317 19.2555 5.35317C17.4116 5.80318 15.7264 6.50587 14.1624 7.41738C14.1624 7.41738 12.2569 5.52232 12.2569 5.52232C11.2691 4.5325 9.54007 4.53354 8.54919 5.52127C8.54919 5.52127 5.50247 8.56695 5.50247 8.56695C5.01384 9.05455 4.73506 9.72905 4.73506 10.4182C4.73506 11.1167 5.00548 11.7745 5.5004 12.2683C5.5004 12.2683 7.32968 14.106 7.32968 14.106C6.36804 15.6857 5.62881 17.4127 5.15688 19.2566C5.15688 19.2566 2.61133 19.2566 2.61133 19.2566C1.16628 19.2566 0 20.4176 0 21.8585C0 21.8585 0 26.1655 0 26.1655C0 27.6105 1.16628 28.7455 2.61133 28.7455C2.61133 28.7455 5.15688 28.7455 5.15688 28.7455C5.62881 30.5894 6.367 32.3268 7.32759 33.9065C7.32759 33.9065 5.49831 35.7473 5.49831 35.7473C5.00339 36.2412 4.73192 36.9021 4.73192 37.6017C4.73192 38.3012 5.00444 38.9621 5.49831 39.456C5.49831 39.456 8.54712 42.5038 8.54712 42.5038C9.04202 42.9977 9.69878 43.2691 10.3973 43.2691C11.0958 43.2691 11.7536 42.9966 12.2485 42.5038C12.2485 42.5038 14.1624 40.6077 14.1624 40.6077C15.7264 41.5192 17.4116 42.2208 19.2555 42.6729C19.2555 42.6729 19.2555 45.3918 19.2555 45.3918C19.2555 46.8358 20.3915 48 21.8355 48C21.8355 48 26.1456 48 26.1456 48C27.5897 48 28.7434 46.8358 28.7434 45.3918C28.7434 45.3918 28.7434 42.6719 28.7434 42.6719C30.5883 42.2208 32.2631 41.5192 33.8272 40.6077C33.8272 40.6077 35.7243 42.4996 35.7243 42.4996C36.2193 42.9956 36.877 43.267 37.5777 43.267C38.2772 43.267 38.936 42.9945 39.4299 42.5017C39.4299 42.5017 42.4787 39.456 42.4787 39.456C42.9726 38.9632 43.243 38.3044 43.2451 37.6058C43.2451 36.9063 42.9715 36.2495 42.4787 35.7546C42.4787 35.7546 40.6515 33.9065 40.6515 33.9065C41.6121 32.3258 42.3503 30.5873 42.8233 28.7455C42.8233 28.7455 45.3688 28.7455 45.3688 28.7455C46.8128 28.7455 48 27.6105 48 26.1655C48 26.1655 48 21.8585 48 21.8585C48.001 20.4176 46.8149 19.2566 45.3709 19.2566C45.3709 19.2566 45.3709 19.2566 45.3709 19.2566ZM23.9895 32.211C19.4184 32.211 15.7118 28.5388 15.7118 24.0126C15.7118 19.4832 19.4184 15.8163 23.9895 15.8163C28.5617 15.8163 32.2704 19.4832 32.2704 24.0126C32.2694 28.5399 28.5617 32.211 23.9895 32.211C23.9895 32.211 23.9895 32.211 23.9895 32.211Z" fill="#7AAAC6" transform="translate(175 24)" />
    <path d="M45.3709 19.2566C45.3709 19.2566 42.8264 19.2566 42.8264 19.2566C42.3534 17.4127 41.6152 15.6857 40.6526 14.106C40.6526 14.106 42.4819 12.2725 42.4819 12.2725C42.9757 11.7786 43.2472 11.1198 43.2472 10.4203C43.2472 9.72174 42.9736 9.06186 42.4819 8.56905C42.4819 8.56905 39.433 5.52336 39.433 5.52336C38.4443 4.53354 36.7163 4.53459 35.7317 5.52232C35.7317 5.52232 33.8251 7.41739 33.8251 7.41739C32.2631 6.50691 30.5884 5.80527 28.7434 5.35422C28.7434 5.35422 28.7434 2.63116 28.7434 2.63116C28.7434 1.18716 27.5897 0 26.1457 0C26.1457 0 21.8356 0 21.8356 0C20.3915 0 19.2556 1.18716 19.2556 2.63116C19.2556 2.63116 19.2556 5.35316 19.2556 5.35316C17.4116 5.80318 15.7264 6.50587 14.1624 7.41739C14.1624 7.41739 12.2569 5.52232 12.2569 5.52232C11.2691 4.5325 9.54007 4.53354 8.54921 5.52127C8.54921 5.52127 5.50247 8.56696 5.50247 8.56696C5.01384 9.05455 4.73506 9.72905 4.73506 10.4182C4.73506 11.1167 5.00548 11.7745 5.5004 12.2683C5.5004 12.2683 7.32968 14.106 7.32968 14.106C6.36804 15.6857 5.62881 17.4127 5.15688 19.2566C5.15688 19.2566 2.61133 19.2566 2.61133 19.2566C1.16628 19.2566 0 20.4176 0 21.8585C0 21.8585 0 26.1655 0 26.1655C0 27.6105 1.16628 28.7455 2.61133 28.7455C2.61133 28.7455 5.15688 28.7455 5.15688 28.7455C5.62881 30.5894 6.367 32.3268 7.32759 33.9066C7.32759 33.9066 5.49831 35.7473 5.49831 35.7473C5.00339 36.2412 4.73192 36.9021 4.73192 37.6017C4.73192 38.3012 5.00444 38.9622 5.49831 39.456C5.49831 39.456 8.54712 42.5038 8.54712 42.5038C9.04202 42.9977 9.69878 43.2691 10.3973 43.2691C11.0958 43.2691 11.7536 42.9966 12.2485 42.5038C12.2485 42.5038 14.1624 40.6077 14.1624 40.6077C15.7264 41.5192 17.4116 42.2208 19.2556 42.6729C19.2556 42.6729 19.2556 45.3918 19.2556 45.3918C19.2556 46.8358 20.3915 48 21.8356 48C21.8356 48 26.1457 48 26.1457 48C27.5897 48 28.7434 46.8358 28.7434 45.3918C28.7434 45.3918 28.7434 42.6719 28.7434 42.6719C30.5884 42.2208 32.2631 41.5192 33.8272 40.6077C33.8272 40.6077 35.7244 42.4996 35.7244 42.4996C36.2193 42.9955 36.8771 43.267 37.5777 43.267C38.2772 43.267 38.9361 42.9945 39.4299 42.5017C39.4299 42.5017 42.4787 39.456 42.4787 39.456C42.9726 38.9632 43.243 38.3044 43.2451 37.6058C43.2451 36.9063 42.9716 36.2495 42.4787 35.7546C42.4787 35.7546 40.6515 33.9066 40.6515 33.9066C41.6121 32.3258 42.3503 30.5873 42.8233 28.7455C42.8233 28.7455 45.3688 28.7455 45.3688 28.7455C46.8129 28.7455 48 27.6105 48 26.1655C48 26.1655 48 21.8585 48 21.8585C48.001 20.4176 46.8149 19.2566 45.3709 19.2566C45.3709 19.2566 45.3709 19.2566 45.3709 19.2566ZM23.9895 32.211C19.4184 32.211 15.7118 28.5388 15.7118 24.0126C15.7118 19.4832 19.4184 15.8163 23.9895 15.8163C28.5617 15.8163 32.2704 19.4832 32.2704 24.0126C32.2694 28.5399 28.5617 32.211 23.9895 32.211C23.9895 32.211 23.9895 32.211 23.9895 32.211Z" fill="#7AAAC6" transform="translate(175 228)" />
  </g>
</svg>