<?xml version="1.0" encoding="utf-8"?>
<svg width="300" height="300" viewBox="0 0 300 300" fill="none" xmlns="http://www.w3.org/2000/svg">
  <defs>
    <clipPath id="clip_path_1">
      <rect width="300" height="300" rx="50" />
    </clipPath>
  </defs>
  <g clip-path="url(#clip_path_1)">
    <rect width="300" height="300" fill="#121212" fill-rule="evenodd" />
    <path id="Vector 39" d="M162.782 31.4993C163.909 31.4993 164.929 31.169 165.843 30.5085C166.757 29.8478 167.393 28.9815 167.749 27.9097L174.73 6.9101C174.996 6.10966 175.065 5.29247 174.938 4.45818C174.812 3.62404 174.502 2.86476 174.01 2.1802C173.518 1.49558 172.897 0.961147 172.148 0.576611C171.399 0.192272 170.604 0 169.763 0L34.7504 0C33.4393 0 32.2905 0.432735 31.3037 1.29823C30.3169 2.16362 29.736 3.24786 29.5616 4.55074L25.9502 31.5L162.782 31.4993ZM61.9548 73.5L111.294 73.4999C112.135 73.4999 112.93 73.6922 113.679 74.0765C114.428 74.461 115.049 74.9954 115.541 75.68C116.033 76.3643 116.342 77.1236 116.469 77.9578C116.596 78.7918 116.527 79.609 116.261 80.4095L102.305 122.41C101.949 123.482 101.314 124.348 100.4 125.009C99.4858 125.67 98.4652 126 97.3383 126L60.7089 126C59.3887 126 58.2338 126.438 57.244 127.314C56.2543 128.19 55.6776 129.285 55.5138 130.599L42.9983 231L69.6541 215.449C70.3313 215.054 70.8917 214.532 71.3355 213.885C71.7795 213.237 72.0641 212.526 72.1893 211.751L80.243 161.91C80.4482 160.639 81.0399 159.586 82.0179 158.752C82.9958 157.917 84.127 157.5 85.4111 157.5L120.375 157.5C121.501 157.5 122.522 157.17 123.436 156.509C124.35 155.848 124.985 154.982 125.342 153.91L160.238 48.9098C160.504 48.1094 160.574 47.2919 160.447 46.4579C160.32 45.624 160.011 44.8647 159.519 44.1799C159.027 43.4954 158.406 42.9609 157.657 42.5765C156.908 42.1921 156.113 41.9999 155.271 41.9999L54.9741 41.9999C54.1326 41.9999 53.3374 42.1919 52.5883 42.5764C51.8393 42.9611 51.2189 43.4955 50.7268 44.1801C50.2348 44.8649 49.9254 45.6241 49.7985 46.4581C49.6716 47.2924 49.7412 48.1098 50.0074 48.9101L56.988 69.9103C57.3442 70.9822 57.9795 71.8485 58.8935 72.5091C59.8077 73.1697 60.8281 73.5 61.9548 73.5L61.9548 73.5ZM37.7629 189C37.7629 189 11.4895 173.945 11.4895 173.945C10.5683 173.417 9.87134 172.677 9.39904 171.724C8.92663 170.771 8.75866 169.767 8.89504 168.712C8.89504 168.712 15.0078 121.424 15.0078 121.424C15.1047 120.676 15.0432 119.94 14.8236 119.218C14.6039 118.496 14.2456 117.851 13.7486 117.284C13.2516 116.717 12.6601 116.278 11.9742 115.967C11.2882 115.655 10.5687 115.5 9.81574 115.5C9.81574 115.5 5.23692 115.5 5.23692 115.5C4.39564 115.5 3.60038 115.307 2.85123 114.923C2.10228 114.539 1.48165 114.004 0.989845 113.319C0.497581 112.635 0.188347 111.876 0.0614548 111.042C-0.0654373 110.207 0.00421906 109.39 0.270065 108.589C0.270065 108.589 7.25085 87.5892 7.25085 87.5892C7.60701 86.5173 8.24231 85.6511 9.15635 84.9904C10.0704 84.3298 11.0908 83.9995 12.2176 83.9995C12.2176 83.9995 14.336 83.9995 14.336 83.9995C15.647 83.9995 16.7959 83.5666 17.7827 82.701C18.7696 81.8356 19.3503 80.7515 19.5249 79.4486L24.5431 41.9999L32.8306 41.9999Q33.022 41.9999 33.2128 42.0149Q33.4037 42.0298 33.5927 42.0596Q33.7818 42.0894 33.968 42.1338Q34.1542 42.1783 34.3363 42.2371Q34.5185 42.296 34.6955 42.3688Q34.8725 42.4417 35.0432 42.5282Q35.214 42.6146 35.3775 42.7142Q35.541 42.8137 35.6963 42.9257Q35.8515 43.0377 35.9975 43.1614Q36.1436 43.2852 36.2795 43.4199Q36.4154 43.5547 36.5404 43.6997Q36.6654 43.8446 36.7787 43.9989Q36.892 44.1532 36.9929 44.3158Q37.0938 44.4785 37.1818 44.6485Q37.2697 44.8186 37.3441 44.9949Q37.4184 45.1713 37.4788 45.3529C41.3087 56.8722 49.1345 80.41 49.1345 80.41C49.4909 81.4819 50.1261 82.3481 51.0403 83.0087C51.9542 83.6692 52.9746 83.9995 54.1013 83.9995C54.1013 83.9995 95.419 83.9995 95.419 83.9995C96.2604 83.9995 97.0557 84.1917 97.8048 84.5761C98.5538 84.9608 99.1742 85.4953 99.6664 86.1798C100.158 86.8642 100.468 87.6236 100.594 88.4577C100.722 89.2917 100.652 90.1091 100.386 90.9097C100.386 90.9097 93.4052 111.91 93.4052 111.91C93.049 112.982 92.4137 113.848 91.4996 114.509C90.5856 115.169 89.5652 115.5 88.4383 115.5C88.4383 115.5 51.7921 115.5 51.7921 115.5C50.4754 115.5 49.3227 115.936 48.3342 116.808C47.3455 117.68 46.7673 118.771 46.5994 120.08L37.7629 189L37.7629 189Z" fill="#00FFB3" fill-rule="evenodd" transform="translate(62 41)" />
  </g>
</svg>