<?xml version="1.0" encoding="utf-8"?>
<svg width="350" height="250" viewBox="0 0 350 250" fill="none" stroke="none" version="1.1" xmlns:xlink="http://www.w3.org/1999/xlink" xmlns="http://www.w3.org/2000/svg">
  <defs>
    <path id="path_1" d="M340 0C345.524 0 350 4.47641 350 10L350 240C350 245.524 345.524 250 340 250L10 250C4.47638 250 0 245.524 0 240L0 10C0 4.47641 4.47638 0 10 0L340 0Z" />
    <rect id="rect_2" x="0" y="0" width="350" height="250" />
    <clipPath id="clip_path_3">
      <use xlink:href="#rect_2" />
    </clipPath>
    <linearGradient id="gradient_4" gradientUnits="userSpaceOnUse" x1="100" y1="78" x2="-100" y2="78">
      <stop offset="0" stop-color="#04FF00" />
      <stop offset="1" stop-color="#013100" />
    </linearGradient>
    <rect id="rect_5" x="0" y="0" width="369" height="48.409" />
    <clipPath id="clip_path_6">
      <use xlink:href="#rect_5" />
    </clipPath>
  </defs>
  <g id="Frame" opacity="1" clip-path="url(#clip_path_3)">
    <g>
      <use xlink:href="#path_1" style="mix-blend-mode:normal;" />
      <g>
        <g id="Group" transform="translate(95 8)">
          <path id="Shield" d="M159.675 4.87963L146.032 160.12C145.796 162.815 143.496 165.607 140.896 166.355L84.3109 182.645C81.7111 183.393 77.4961 183.393 74.8963 182.645L18.3109 166.355C15.7111 165.607 13.4182 162.815 13.1895 160.119L0.0177552 4.8809C-0.210966 2.18525 1.79672 0 4.50206 0L155.205 0C157.911 0 159.912 2.18468 159.675 4.87963Z" style="fill:#028900;fill-rule:evenodd;mix-blend-mode:normal;" />
          <path id="Shield" d="M68.7898 2.39117L56.8331 138.397C56.717 139.717 55.5901 141.085 54.3161 141.452L2.59328 156.336C1.31927 156.703 0.284538 155.925 0.28212 154.6L0 0L66.5996 0C67.9253 0 68.9059 1.07056 68.7898 2.39117Z" style="fill:url(#gradient_4);fill-rule:evenodd;mix-blend-mode:normal;" transform="translate(80 14)" />
          <path id="Path" d="M0 116.922L14.8436 116.922L26.6043 83.8094L45.2349 83.8094L31.6357 45.4997C31.2846 44.5106 31.8508 43.7088 32.9004 43.7088L67.4647 43.7088C68.5143 43.7088 69.0805 44.5106 68.7294 45.4997L55.1302 83.8094L73.8756 83.8094L85.6364 116.922L100.48 116.922L57.5477 0L42.9324 0L0 116.922ZM50 4L51.1756 6.38197L53.8042 6.76393L51.9021 8.61803L52.3511 11.2361L50 10L47.6489 11.2361L48.0979 8.61803L46.1958 6.76393L48.8244 6.38197L50 4ZM53.001 53.9835L50.048 48L47.095 53.9835L40.4918 54.943L45.2699 59.6005L44.1419 66.177L50.048 63.072L55.9541 66.177L54.8261 59.6005L59.6042 54.943L53.001 53.9835Z" style="fill:#FFFFFF;fill-rule:evenodd;mix-blend-mode:normal;" transform="translate(30 31)" />
          <path id="Star" d="M3.80423 0L4.9798 2.38197L7.60846 2.76393L5.70634 4.61803L6.15536 7.23607L3.80423 6L1.45309 7.23607L1.90211 4.61803L0 2.76393L2.62866 2.38197L3.80423 0Z" style="fill:#000000;fill-rule:evenodd;fill-opacity:0.2;mix-blend-mode:normal;" transform="translate(76.196 35)" />
        </g>
        <g clip-path="url(#clip_path_6)" style="mix-blend-mode:normal;" transform="translate(-9 192)">
          <path d="M8.48544 43.5938L1.07067 43.5938L12.3686 10.8665L21.2855 10.8665L32.5675 43.5938L25.1527 43.5938L22.7237 36.131L10.9144 36.131L8.48544 43.5938ZM12.6722 30.7298L20.9819 30.7298L16.9549 18.3452L16.6992 18.3452L12.6722 30.7298ZM38.1445 43.5938L31.4648 19.0483L38.3523 19.0483L42.1555 35.5398L42.3793 35.5398L46.3423 19.0483L53.1019 19.0483L57.1289 35.4439L57.3366 35.4439L61.076 19.0483L67.9474 19.0483L61.2837 43.5938L54.0767 43.5938L49.858 28.157L49.5543 28.157L45.3356 43.5938L38.1445 43.5938ZM82.1378 44.0732Q78.3665 44.0732 75.6339 42.5311Q72.9013 40.989 71.4311 38.1525Q69.9609 35.3161 69.9609 31.4329Q69.9609 27.6456 71.4311 24.7852Q72.9013 21.9247 75.5779 20.3267Q78.2546 18.7287 81.8661 18.7287Q85.1101 18.7287 87.7228 20.103Q90.3356 21.4773 91.8697 24.2498Q93.4038 27.0224 93.4038 31.1932L93.4038 33.0629L76.6886 33.0629L76.6886 33.0788Q76.6886 35.8274 78.1907 37.4094Q79.6928 38.9915 82.2496 38.9915Q83.9595 38.9915 85.206 38.2724Q86.4524 37.5533 86.9638 36.147L93.2599 36.5625Q92.5408 39.9822 89.6165 42.0277Q86.6921 44.0732 82.1378 44.0732ZM76.6886 28.8441L86.9957 28.8441Q86.9798 26.6548 85.5895 25.2326Q84.1992 23.8104 81.978 23.8104Q79.7088 23.8104 78.2546 25.2805Q76.8004 26.7507 76.6886 28.8441ZM118.269 26.0476L112.037 26.4311Q111.781 25.2486 110.742 24.4016Q109.703 23.5547 107.93 23.5547Q106.348 23.5547 105.253 24.2179Q104.158 24.881 104.174 25.9837Q104.158 26.8626 104.869 27.4698Q105.581 28.0771 107.29 28.4446L111.733 29.3395Q118.812 30.7937 118.828 35.9872Q118.828 38.4002 117.414 40.2219Q116 42.0437 113.539 43.0584Q111.078 44.0732 107.898 44.0732Q103.024 44.0732 100.131 42.0357Q97.239 39.9982 96.7596 36.4826L103.455 36.131Q103.775 37.6332 104.933 38.4002Q106.092 39.1673 107.914 39.1673Q109.703 39.1673 110.798 38.4641Q111.893 37.761 111.909 36.6744Q111.861 34.8526 108.761 34.2294L104.51 33.3825Q97.3828 31.9602 97.4148 26.3672Q97.3988 22.8196 100.251 20.7741Q103.104 18.7287 107.818 18.7287Q112.468 18.7287 115.145 20.6942Q117.821 22.6598 118.269 26.0476ZM134.217 44.0732Q130.494 44.0732 127.785 42.4831Q125.076 40.8931 123.606 38.0407Q122.136 35.1882 122.136 31.4169Q122.136 27.6136 123.606 24.7612Q125.076 21.9087 127.785 20.3187Q130.494 18.7287 134.217 18.7287Q137.94 18.7287 140.649 20.3187Q143.358 21.9087 144.828 24.7612Q146.298 27.6136 146.298 31.4169Q146.298 35.1882 144.828 38.0407Q143.358 40.8931 140.649 42.4831Q137.94 44.0732 134.217 44.0732ZM134.249 38.7997Q136.774 38.7997 138.076 36.6903Q139.379 34.581 139.379 31.369Q139.379 28.157 138.076 26.0396Q136.774 23.9222 134.249 23.9222Q131.676 23.9222 130.366 26.0396Q129.055 28.157 129.055 31.369Q129.055 34.581 130.366 36.6903Q131.676 38.7997 134.249 38.7997ZM150.74 43.5938L150.74 19.0483L157.228 19.0483L157.228 23.3789L157.516 23.3789Q158.283 21.2056 160.081 19.9672Q161.879 18.7287 164.355 18.7287Q166.88 18.7287 168.654 19.9831Q170.428 21.2376 171.019 23.3789L171.275 23.3789Q172.026 21.2695 173.999 19.9991Q175.973 18.7287 178.674 18.7287Q182.109 18.7287 184.259 20.91Q186.408 23.0913 186.408 27.0863L186.408 43.5938L179.616 43.5938L179.616 28.4286Q179.616 26.3832 178.53 25.3604Q177.443 24.3377 175.813 24.3377Q173.96 24.3377 172.921 25.5202Q171.882 26.7028 171.882 28.6044L171.882 43.5938L165.282 43.5938L165.282 28.2848Q165.282 26.479 164.252 25.4084Q163.221 24.3377 161.543 24.3377Q159.849 24.3377 158.699 25.5762Q157.548 26.8146 157.548 28.8601L157.548 43.5938L150.74 43.5938ZM202.963 44.0732Q199.192 44.0732 196.46 42.5311Q193.727 40.989 192.257 38.1525Q190.787 35.3161 190.787 31.4329Q190.787 27.6456 192.257 24.7852Q193.727 21.9247 196.404 20.3267Q199.08 18.7287 202.692 18.7287Q205.936 18.7287 208.548 20.103Q211.161 21.4773 212.695 24.2498Q214.229 27.0224 214.229 31.1932L214.229 33.0629L197.514 33.0629L197.514 33.0788Q197.514 35.8274 199.016 37.4094Q200.518 38.9915 203.075 38.9915Q204.785 38.9915 206.032 38.2724Q207.278 37.5533 207.789 36.147L214.086 36.5625Q213.366 39.9822 210.442 42.0277Q207.518 44.0732 202.963 44.0732ZM197.514 28.8441L207.821 28.8441Q207.805 26.6548 206.415 25.2326Q205.025 23.8104 202.804 23.8104Q200.534 23.8104 199.08 25.2805Q197.626 26.7507 197.514 28.8441ZM234.876 43.5938L227.461 43.5938L238.759 10.8665L247.676 10.8665L258.958 43.5938L251.543 43.5938L249.114 36.131L237.305 36.131L234.876 43.5938ZM239.062 30.7298L247.372 30.7298L243.345 18.3452L243.089 18.3452L239.062 30.7298ZM262.761 43.5938L262.761 19.0483L269.361 19.0483L269.361 23.331L269.616 23.331Q270.288 21.0458 271.87 19.8713Q273.452 18.6967 275.513 18.6967Q276.648 18.6967 277.654 18.9364L277.654 24.9769Q277.175 24.8171 276.328 24.7132Q275.481 24.6094 274.778 24.6094Q272.525 24.6094 271.047 26.0236Q269.569 27.4379 269.569 29.707L269.569 43.5938L262.761 43.5938ZM295.44 19.0483L295.44 24.1619L290.822 24.1619L290.822 36.0511Q290.822 37.4574 291.461 37.9528Q292.1 38.4482 293.123 38.4482Q293.603 38.4482 294.082 38.3603Q294.561 38.2724 294.817 38.2244L295.888 43.2901Q295.376 43.4499 294.45 43.6657Q293.523 43.8814 292.196 43.9293Q288.489 44.0891 286.244 42.3233Q283.999 40.5575 284.015 36.946L284.015 24.1619L280.659 24.1619L280.659 19.0483L284.015 19.0483L284.015 13.1676L290.822 13.1676L290.822 19.0483L295.44 19.0483ZM319.954 26.0476L313.722 26.4311Q313.466 25.2486 312.427 24.4016Q311.388 23.5547 309.615 23.5547Q308.033 23.5547 306.938 24.2179Q305.843 24.881 305.859 25.9837Q305.843 26.8626 306.554 27.4698Q307.266 28.0771 308.975 28.4446L313.418 29.3395Q320.497 30.7937 320.513 35.9872Q320.513 38.4002 319.099 40.2219Q317.685 42.0437 315.224 43.0584Q312.763 44.0732 309.583 44.0732Q304.709 44.0732 301.816 42.0357Q298.924 39.9982 298.445 36.4826L305.14 36.131Q305.46 37.6332 306.618 38.4002Q307.777 39.1673 309.599 39.1673Q311.388 39.1673 312.483 38.4641Q313.578 37.761 313.594 36.6744Q313.546 34.8526 310.446 34.2294L306.195 33.3825Q299.068 31.9602 299.1 26.3672Q299.084 22.8196 301.936 20.7741Q304.789 18.7287 309.503 18.7287Q314.153 18.7287 316.83 20.6942Q319.506 22.6598 319.954 26.0476Z" transform="translate(23.452 0)" style="fill:#028900;" />
        </g>
      </g>
    </g>
  </g>
</svg>